<?xml version="1.0" encoding="UTF-8"?>
<svg id="Layer_1" xmlns="http://www.w3.org/2000/svg" version="1.1" viewBox="0 0 800 800">
  <!-- Generator: Adobe Illustrator 29.8.4, SVG Export Plug-In . SVG Version: 2.1.1 Build 6)  -->
  <defs>
    <style>
      .st0 {
        fill: #2d5a6e;
      }
    </style>
  </defs>
  <path class="st0" d="M117.58,483.04h-52.81c-9.02,0-16.33,7.31-16.33,16.33s7.31,16.33,16.33,16.33h52.81c9.02,0,16.33-7.31,16.33-16.33s-7.31-16.33-16.32-16.33Z"/>
  <path class="st0" d="M117.58,523.45h-52.81c-9.02,0-16.33,7.31-16.33,16.33s7.31,16.33,16.33,16.33h52.81c9.02,0,16.33-7.31,16.33-16.33s-7.31-16.33-16.32-16.33Z"/>
  <path class="st0" d="M117.58,563.86h-52.81c-9.02,0-16.33,7.31-16.33,16.33s7.31,16.33,16.33,16.33h52.81c9.02,0,16.33-7.31,16.33-16.33s-7.31-16.33-16.32-16.33Z"/>
  <path class="st0" d="M244.16,483.04h-17.82c-9.02,0-16.33,7.31-16.33,16.33s7.31,16.33,16.33,16.33h17.82c9.02,0,16.33-7.31,16.33-16.33s-7.31-16.33-16.33-16.33Z"/>
  <path class="st0" d="M242.94,523.45h-16.59c-9.02,0-16.33,7.31-16.33,16.33s7.31,16.33,16.33,16.33h16.59c9.02,0,16.33-7.31,16.33-16.33s-7.31-16.33-16.33-16.33Z"/>
  <path class="st0" d="M756.81,104.4c-.05-24.71-20.17-44.8-44.9-44.8s-44.85,20.09-44.9,44.8l-5.71,564.01v.17c0,27.91,22.7,50.61,50.61,50.61s50.61-22.7,50.61-50.61c0-.06,0-.11,0-.17l-5.72-564.01ZM699.67,104.66c0-.05,0-.11,0-.17,0-6.75,5.49-12.25,12.25-12.25s12.25,5.49,12.25,12.25v.17l4.06,400.65h-32.61l4.06-400.65ZM711.92,686.54c-9.88,0-17.92-8.02-17.96-17.89l1.32-130.68h33.27l1.32,130.68c-.04,9.87-8.08,17.89-17.96,17.89Z"/>
  <path class="st0" d="M730.72,756.74h-90.66v-110.39c0-31.82-19.21-62.05-46.7-73.51l-105.07-43.78c-3.74-1.56-6.15-5.18-6.15-9.23v-25.42l42.68-24.47c.3-.17.59-.35.88-.54,21.37-14.11,35.4-39.21,37.53-67.13.03-.41.05-.83.05-1.24v-13.55c21.2-6.9,36.57-26.85,36.57-50.32s-15.37-43.42-36.57-50.32v-8.1c9.32-20.27,47.99-115.64-10.46-190.11-27.01-34.42-59.41-49.05-88.58-40.67-24.68-18.29-53.91-27.2-89.03-27.2-50,0-90.37,18.33-118.88,45.92-21.86-16.3-48.34-25.17-75.93-25.17-29.2,0-56.11,9.91-77.6,26.51l-26.79-26.79s0,0-.01-.01c0,0-25.82-25.82-25.82-25.82-6.37-6.37-16.71-6.37-23.09,0s-6.38,16.71,0,23.09l14.8,14.8c-59.05,70.76-55.39,176.5,11.02,242.91,30.31,30.31,69.68,48.36,111.16,52.1v24.79h-5.01c-9.02,0-16.33,7.31-16.33,16.33s7.31,16.33,16.33,16.33h42.67c9.02,0,16.33-7.31,16.33-16.33s-7.31-16.33-16.33-16.33h-5.01v-24.82c1.52-.14,3.05-.3,4.58-.48,3.83,18.71,17.54,33.87,35.45,39.7v13.55c0,.41.02.83.05,1.24.94,12.33,4.17,24.1,9.29,34.6H16.41c-9.02,0-16.33,7.31-16.33,16.33v213.25c0,9.02,7.31,16.33,16.33,16.33h143.53v73.97h-90.5c-9.02,0-16.33,7.31-16.33,16.33s7.31,16.33,16.33,16.33h661.28c9.02,0,16.33-7.31,16.33-16.33,0-9.02-7.31-16.33-16.32-16.33ZM375.19,53.39c40.94,0,62.71,14.56,75.52,25.5,4.94,4.22,11.91,5.11,17.75,2.27,16.76-8.16,38.69,2.16,58.66,27.6,34.3,43.69,25.36,99.44,15.48,131.96-7.2-8.6-16.72-18.72-29.01-29.58-7.86-6.95-18.57-12.17-29.91-17.69-13.37-6.51-30-14.61-33.15-22.82-2.06-5.36-6.78-9.25-12.43-10.23-5.66-.99-11.42,1.07-15.17,5.42-22.06,25.56-49.48,37.46-86.3,37.46-45.12,0-70,24.4-82.94,44.86-.57.91-1.13,1.81-1.66,2.72-5.82-18.23-11.13-43.01-11.13-72.72,0-61.32,50.23-124.74,134.29-124.74ZM466.01,273.26c-32.18,0-59.17,22.56-66.03,52.69-6.86-30.13-33.85-52.69-66.03-52.69-20.62,0-39.11,9.28-51.54,23.86l-12.03-6.08c3.77-14.93,18.36-55.11,66.25-55.11,39.1,0,71.05-11.34,97.09-34.58,10.1,9.02,23.4,15.49,35.66,21.46,8.87,4.32,18.05,8.79,22.58,12.8,23.02,20.35,34.62,37.28,38.65,43.84v11.17l-12.93,6.65c-12.43-14.67-30.98-24.01-51.68-24.01ZM501.09,341c0,19.34-15.74,35.08-35.08,35.08s-35.08-15.74-35.08-35.08,15.74-35.08,35.08-35.08,35.08,15.74,35.08,35.08ZM369.03,341c0,19.34-15.74,35.08-35.08,35.08s-35.08-15.74-35.08-35.08,15.74-35.08,35.08-35.08,35.08,15.74,35.08,35.08ZM180.38,74.14c19.85,0,38.94,6.18,54.88,17.57-17.61,25.99-27.01,56.4-27.01,86.42s4.96,56.53,10.91,76.8c-12.12,5.45-25.37,8.3-38.78,8.3-52.13,0-94.55-42.41-94.55-94.55s42.42-94.55,94.55-94.55ZM205.43,314.2c-8.32,1.43-16.67,2.13-24.95,2.14-.03,0-.06,0-.1,0s-.07,0-.1,0c-38.77,0-76.27-15.22-104.3-43.25-53.66-53.66-57.28-138.69-10.89-196.6l14.6,14.6c-16.6,21.49-26.51,48.4-26.51,77.6,0,70.14,57.06,127.2,127.2,127.2,17.25,0,34.29-3.52,50.03-10.25.48,1.08.96,2.12,1.42,3.1-11.53,5.08-20.92,14.16-26.39,25.46ZM232.82,337.15c0-10.03,7.34-18.36,16.93-19.95l18.08,9.14c-1.05,4.72-1.61,9.62-1.61,14.65,0,37.35,30.39,67.73,67.73,67.73,32.18,0,59.17-22.56,66.03-52.69,6.86,30.13,33.85,52.69,66.03,52.69,37.35,0,67.73-30.39,67.73-67.73,0-4.96-.55-9.79-1.57-14.45l18.13-9.33c9.56,1.61,16.88,9.93,16.88,19.94,0,11.16-9.08,20.24-20.24,20.24-9.02,0-16.33,7.31-16.33,16.33v26.64c-1.48,17.27-10.07,33.09-22.53,41.53l-87.66,50.26c-.3.17-.59.35-.88.54-12.24,8.08-26.85,8.08-39.09,0-.29-.19-.59-.38-.9-.55l-87.91-50.26c-12.48-8.45-20.76-23.9-22.26-41.52v-26.65c0-9.02-7.31-16.33-16.33-16.33-11.17,0-20.25-9.08-20.25-20.24ZM273.28,469.52c.3,0,.6-.03.9-.05.25.17.51.33.77.48l42.92,24.54v25.35c0,4.05-2.41,7.67-6.15,9.23l-105.08,43.78c-4.98,2.08-9.68,4.77-14.05,7.98v-111.3h80.68ZM159.94,646.35h0v3.77H32.73v-7.69h127.21v3.91ZM159.94,609.78H32.73v-140.26h127.21v140.26ZM383.75,756.74h-191.16v-110.39c0-18.4,11.44-37.05,26.61-43.37l86.66-36.1,24.69,69.16c2,5.6,6.88,9.67,12.74,10.62.88.14,1.76.21,2.63.21,4.95,0,9.7-2.26,12.83-6.23l25-31.75v147.84h0ZM335.45,552.64c9.99,9.36,21.83,16.4,34.76,20.67l-18.84,23.93-15.93-44.6ZM350.49,520.63c0-.27.03-.53.03-.79v-6.68l12.4,7.09c11.46,7.44,24.27,11.16,37.07,11.16s25.62-3.72,37.08-11.17l12.4-7.11v6.7c0,.33.03.66.04.99-11.71,15.5-29.81,24.62-49.43,24.62-19.72,0-37.89-9.2-49.59-24.82ZM464.72,552.63l-15.93,44.61-18.84-23.93c12.93-4.28,24.78-11.31,34.77-20.68ZM607.41,756.74h-191v-147.85l25,31.75c3.12,3.97,7.87,6.23,12.83,6.23.87,0,1.75-.07,2.63-.21,5.86-.96,10.74-5.03,12.74-10.62l24.67-69.1,86.52,36.05c15.17,6.32,26.61,24.97,26.61,43.37v110.39h0Z"/>
</svg>