<?xml version="1.0" encoding="UTF-8"?>
<svg id="Layer_1" xmlns="http://www.w3.org/2000/svg" version="1.1" viewBox="0 0 800 800">
  <!-- Generator: Adobe Illustrator 29.8.4, SVG Export Plug-In . SVG Version: 2.1.1 Build 6)  -->
  <defs>
    <style>
      .st0 {
        fill: #2d5a6e;
      }
    </style>
  </defs>
  <path class="st0" d="M264.48,88.3c57.45,0,104.02,46.57,104.02,104.02s-46.57,104.02-104.02,104.02-104.02-46.57-104.02-104.02,46.57-104.02,104.02-104.02ZM96.88,478.16c0-7.81,5.02-13.11,13.11-13.11s13.11,5.02,13.11,13.11v290.58h285.84v-290.58c0-7.81,5.02-13.11,13.11-13.11s13.11,5.02,13.11,13.11v290.58h90.91v-316.79c0-71.67-58.56-129.95-129.95-129.95h-26.21l-76.41,118.8-9.2-88.96,12.55-30.12h-56.33l12.55,30.12-9.76,89.52-76.41-119.35h-30.68c-71.67,0-129.95,58.56-129.95,129.95v316.8h90.91v-290.58h-.28ZM643.75,31.25c-82.71,0-150,67.29-150,150s67.29,150,150,150,150-67.29,150-150S726.46,31.25,643.75,31.25ZM754.68,123.75h-40.59c-3.34-15.46-8.03-29.74-13.98-42.17-2.81-5.87-5.85-11.2-9.08-16.01,27.46,11.26,50.03,32.03,63.65,58.18ZM768.75,181.25c0,12.15-1.77,23.89-5.02,35h-45.83c1.4-11.32,2.12-23.05,2.12-35,0-11.07-.63-21.96-1.83-32.5h46.26c2.79,10.37,4.31,21.26,4.31,32.5ZM643.75,302.08c-16.61,0-34.51-23.28-44.15-60.83h88.3c-9.64,37.55-27.54,60.83-44.15,60.83ZM594.79,216.25c-1.48-10.92-2.31-22.63-2.31-35,0-11.43.7-22.3,1.97-32.5h98.59c1.27,10.2,1.97,21.07,1.97,32.5,0,12.37-.83,24.08-2.31,35h-97.92ZM518.75,181.25c0-11.24,1.52-22.13,4.31-32.5h46.26c-1.2,10.54-1.83,21.43-1.83,32.5,0,11.95.73,23.68,2.12,35h-45.83c-3.25-11.11-5.03-22.85-5.03-35ZM643.75,60.42c16.97,0,35.29,24.33,44.76,63.33h-89.52c9.47-39,27.79-63.33,44.76-63.33ZM596.46,65.57c-3.23,4.81-6.27,10.14-9.08,16.01-5.94,12.43-10.63,26.71-13.98,42.17h-40.59c13.61-26.15,36.19-46.92,63.65-58.18ZM534.13,241.25h39.81c3.3,14.5,7.82,27.91,13.44,39.67,2.81,5.87,5.85,11.2,9.08,16.01-26.58-10.9-48.61-30.7-62.33-55.68ZM691.04,296.93c3.23-4.81,6.27-10.14,9.08-16.01,5.63-11.76,10.14-25.17,13.44-39.67h39.81c-13.73,24.98-35.75,44.78-62.33,55.68Z"/>
</svg>