<?xml version="1.0" encoding="UTF-8"?>
<svg id="Layer_1" xmlns="http://www.w3.org/2000/svg" version="1.1" viewBox="0 0 800 800">
  <!-- Generator: Adobe Illustrator 29.8.4, SVG Export Plug-In . SVG Version: 2.1.1 Build 6)  -->
  <defs>
    <style>
      .st0 {
        fill: #2d5a6e;
        fill-rule: evenodd;
      }
    </style>
  </defs>
  <g id="Page-1">
    <g id="icon">
      <path id="Combined-Shape" class="st0" d="M732.68,627.08c.36,1.7.57,3.41.63,5.15l.02,1.1v33.33c0,36.82-67.16,66.67-150,66.67s-148.66-29.25-149.98-65.56l-.02-1.1v-33.33l.02-1.1c.06-1.73.27-3.44.63-5.14,9.19,6.9,20.37,13.27,33.33,18.72,30.25,12.72,71.04,20.85,116.02,20.85s88.99-8.8,119.6-22.4c11.44-5.08,21.4-10.91,29.74-17.18ZM366.67,53.67l300,166.67v123c-24.57-6.31-53-10-83.33-10-45.69,0-87.04,8.4-117.54,21.96-41.77,18.56-63.04,46.96-65.72,75.69l-.08.87.19,269.86-33.51,18.62-300-166.67V220.33L366.67,53.67ZM732.68,527.08c.36,1.7.57,3.41.63,5.15l.02,1.1v33.33c0,36.82-67.16,66.67-150,66.67s-148.66-29.25-149.98-65.56l-.02-1.1v-33.33l.02-1.1c.06-1.73.27-3.44.63-5.14,9.19,6.9,20.37,13.27,33.33,18.72,30.25,12.72,71.04,20.85,116.02,20.85s88.99-8.8,119.6-22.4c11.44-5.08,21.4-10.91,29.74-17.18ZM266.67,364.77v225.93s66.67,37.04,66.67,37.04v-225.94l-66.67-37.04ZM133.33,290.7v225.93l66.67,37.04v-225.93l-66.67-37.04ZM583.33,366.67c82.01,0,148.66,29.25,149.98,65.56l.02,1.1v33.33c0,36.82-67.16,66.67-150,66.67s-148.66-29.25-149.98-65.56l-.02-1.1v-33.33l.22-3.66c4.27-35.12,69.7-63.01,149.78-63.01ZM497.9,200.65l-196.22,109.51,64.98,36.1,196.67-109.26-65.43-36.35ZM366.67,127.74l-196.67,109.26,65.1,36.17,196.22-109.51-64.65-35.91Z"/>
    </g>
  </g>
</svg>